%
M48
M72
T01C0.01378
T02C0.01969
T03C0.03150
T04C0.03200
T05C0.03346
T06C0.03937
T07C0.04000
T08C0.08661
T09C0.13000
%
T01
X97595Y286551
X97595Y311551
X147595Y316551
X227595Y316551
X307595Y316551
X387595Y316551
X467595Y316551
X547595Y316551
T02
X132595Y341551
X137595Y341551
X142595Y341551
X147595Y341551
T03
X377595Y151551
X367595Y151551
X332595Y341551
X342595Y341551
T04
X642595Y81551
X642595Y101551
X547595Y101551
X547595Y81551
X452595Y81551
X452595Y101551
X342595Y101551
X342595Y81551
X247595Y81551
X247595Y101551
X152595Y101551
X152595Y81551
X102595Y197551
X102595Y205551
T05
X628264Y41551
X614485Y41551
X600705Y41551
X586926Y41551
X533264Y41551
X519485Y41551
X505705Y41551
X491926Y41551
X438264Y41551
X424485Y41551
X410705Y41551
X396926Y41551
X328264Y41551
X314485Y41551
X300705Y41551
X286926Y41551
X233264Y41551
X219485Y41551
X205705Y41551
X191926Y41551
X138264Y41551
X124485Y41551
X110705Y41551
X96926Y41551
X77595Y194661
X77595Y208441
T06
X617595Y151551
X607595Y151551
X597595Y151551
X587595Y151551
X577595Y151551
X567595Y151551
X557595Y151551
X547595Y151551
X527595Y151551
X517595Y151551
X507595Y151551
X497595Y151551
X487595Y151551
X477595Y151551
X467595Y151551
X457595Y151551
X437595Y151551
X427595Y151551
X417595Y151551
X407595Y151551
X397595Y151551
X387595Y151551
X391453Y178756
X373737Y178756
X351453Y178756
X333737Y178756
X311453Y178756
X293737Y178756
X271453Y178756
X253737Y178756
X231453Y178756
X213737Y178756
X191453Y178756
X173737Y178756
X151453Y178756
X133737Y178756
X133737Y204268
X151453Y204346
X173737Y204268
X191453Y204346
X213737Y204268
X231453Y204346
X253737Y204268
X271453Y204346
X293737Y204268
X311453Y204346
X333737Y204268
X351453Y204346
X373737Y204268
X391453Y204346
X413737Y204268
X431453Y204346
X453737Y204268
X471453Y204346
X493737Y204268
X511453Y204346
X533737Y204268
X551453Y204346
X573737Y204268
X591453Y204346
X572438Y223992
X562595Y223992
X552753Y223992
X492438Y223992
X482595Y223992
X472753Y223992
X412438Y223992
X402595Y223992
X392753Y223992
X332438Y223992
X322595Y223992
X312753Y223992
X252438Y223992
X242595Y223992
X232753Y223992
X172438Y223992
X162595Y223992
X152753Y223992
X87595Y226551
X77595Y226551
X67595Y226551
X352595Y341551
X362595Y341551
X372595Y341551
X382595Y341551
X392595Y341551
X402595Y341551
X412595Y341551
X422595Y341551
X437595Y341551
X447595Y341551
X457595Y341551
X467595Y341551
X477595Y341551
X487595Y341551
X497595Y341551
X507595Y341551
X527595Y341551
X537595Y341551
X547595Y341551
X557595Y341551
X567595Y341551
X577595Y341551
X587595Y341551
X597595Y341551
X627595Y341551
X637595Y341551
X637595Y331551
X627595Y331551
X627595Y321551
X637595Y321551
X637595Y311551
X627595Y311551
X627595Y301551
X637595Y301551
X637595Y291551
X627595Y291551
X627595Y281551
X637595Y281551
X637595Y271551
X627595Y271551
X627595Y261551
X637595Y261551
X637595Y251551
X627595Y251551
X627595Y241551
X637595Y241551
X637595Y231551
X627595Y231551
X627595Y221551
X637595Y221551
X637595Y211551
X627595Y211551
X627595Y201551
X637595Y201551
X637595Y191551
X627595Y191551
X627595Y181551
X637595Y181551
X637595Y171551
X627595Y171551
X591453Y178756
X573737Y178756
X551453Y178756
X533737Y178756
X511453Y178756
X493737Y178756
X471453Y178756
X453737Y178756
X431453Y178756
X413737Y178756
T07
X642595Y21551
X642595Y31551
X642595Y66551
X632595Y66551
X622595Y66551
X612595Y66551
X602595Y66551
X592595Y66551
X582595Y66551
X572595Y66551
X572595Y81551
X582595Y81551
X582595Y91551
X572595Y91551
X572595Y101551
X582595Y101551
X582595Y116551
X572595Y116551
X592595Y116551
X602595Y116551
X612595Y116551
X622595Y116551
X632595Y116551
X642595Y116551
X547595Y116551
X537595Y116551
X527595Y116551
X517595Y116551
X507595Y116551
X497595Y116551
X487595Y116551
X477595Y116551
X477595Y101551
X487595Y101551
X487595Y91551
X477595Y91551
X477595Y81551
X487595Y81551
X487595Y66551
X477595Y66551
X497595Y66551
X507595Y66551
X517595Y66551
X527595Y66551
X537595Y66551
X547595Y66551
X547595Y31551
X547595Y21551
X572595Y21551
X572595Y31551
X477595Y31551
X477595Y21551
X452595Y21551
X452595Y31551
X452595Y66551
X442595Y66551
X432595Y66551
X422595Y66551
X412595Y66551
X402595Y66551
X392595Y66551
X382595Y66551
X382595Y81551
X392595Y81551
X392595Y91551
X382595Y91551
X382595Y101551
X392595Y101551
X392595Y116551
X382595Y116551
X402595Y116551
X412595Y116551
X422595Y116551
X432595Y116551
X442595Y116551
X452595Y116551
X342595Y116551
X332595Y116551
X322595Y116551
X312595Y116551
X302595Y116551
X292595Y116551
X282595Y116551
X272595Y116551
X272595Y101551
X282595Y101551
X282595Y91551
X272595Y91551
X272595Y81551
X282595Y81551
X282595Y66551
X272595Y66551
X292595Y66551
X302595Y66551
X312595Y66551
X322595Y66551
X332595Y66551
X342595Y66551
X342595Y31551
X342595Y21551
X382595Y21551
X382595Y31551
X272595Y31551
X272595Y21551
X247595Y21551
X247595Y31551
X247595Y66551
X237595Y66551
X227595Y66551
X217595Y66551
X207595Y66551
X197595Y66551
X187595Y66551
X177595Y66551
X177595Y81551
X187595Y81551
X187595Y91551
X177595Y91551
X177595Y101551
X187595Y101551
X187595Y116551
X177595Y116551
X197595Y116551
X207595Y116551
X217595Y116551
X227595Y116551
X237595Y116551
X247595Y116551
X152595Y116551
X142595Y116551
X132595Y116551
X122595Y116551
X112595Y116551
X102595Y116551
X92595Y116551
X82595Y116551
X82595Y101551
X92595Y101551
X92595Y91551
X82595Y91551
X82595Y81551
X92595Y81551
X92595Y66551
X82595Y66551
X102595Y66551
X112595Y66551
X122595Y66551
X132595Y66551
X142595Y66551
X152595Y66551
X152595Y31551
X152595Y21551
X177595Y21551
X177595Y31551
X82595Y31551
X82595Y21551
X67595Y296551
X67595Y306551
X85595Y336551
X95595Y336551
T08
X143698Y251551
X181493Y251551
X223698Y251551
X261493Y251551
X303698Y251551
X341493Y251551
X383698Y251551
X421493Y251551
X463698Y251551
X501493Y251551
X543698Y251551
X581493Y251551
T09
X662595Y26551
X362595Y26551
X62595Y26551
X62595Y341551
X662595Y341551
M30
