G75*
%MOIN*%
%OFA0B0*%
%FSLAX25Y25*%
%IPPOS*%
%LPD*%
%AMOC8*
5,1,8,0,0,1.08239X$1,22.5*
%
%ADD10C,0.00600*%
%ADD11C,0.05600*%
%ADD12OC8,0.05600*%
%ADD13OC8,0.06400*%
%ADD14C,0.06400*%
%ADD15C,0.06400*%
%ADD16R,0.06400X0.06400*%
%ADD17C,0.06337*%
%ADD18C,0.13061*%
%ADD19C,0.06337*%
%ADD20C,0.05746*%
%ADD21C,0.06000*%
%ADD22R,0.07498X0.06699*%
%ADD23R,0.07487X0.06699*%
%ADD24R,0.05124X0.05715*%
%ADD25C,0.00000*%
%ADD26C,0.13400*%
D10*
X0047595Y0011551D02*
X0677595Y0011551D01*
X0677595Y0356551D01*
X0047595Y0356551D01*
X0047595Y0011551D01*
D11*
X0152595Y0081551D03*
X0247595Y0081551D03*
X0342595Y0081551D03*
X0452595Y0081551D03*
X0547595Y0081551D03*
X0642595Y0081551D03*
X0102595Y0205551D03*
D12*
X0102595Y0197551D03*
X0152595Y0101551D03*
X0247595Y0101551D03*
X0342595Y0101551D03*
X0452595Y0101551D03*
X0547595Y0101551D03*
X0642595Y0101551D03*
D13*
X0582595Y0101551D03*
X0572595Y0101551D03*
X0572595Y0091551D03*
X0582595Y0091551D03*
X0582595Y0081551D03*
X0572595Y0081551D03*
X0487595Y0081551D03*
X0477595Y0081551D03*
X0477595Y0091551D03*
X0487595Y0091551D03*
X0487595Y0101551D03*
X0477595Y0101551D03*
X0392595Y0101551D03*
X0382595Y0101551D03*
X0382595Y0091551D03*
X0392595Y0091551D03*
X0392595Y0081551D03*
X0382595Y0081551D03*
X0282595Y0081551D03*
X0272595Y0081551D03*
X0272595Y0091551D03*
X0282595Y0091551D03*
X0282595Y0101551D03*
X0272595Y0101551D03*
X0187595Y0101551D03*
X0177595Y0101551D03*
X0177595Y0091551D03*
X0187595Y0091551D03*
X0187595Y0081551D03*
X0177595Y0081551D03*
X0092595Y0081551D03*
X0082595Y0081551D03*
X0082595Y0091551D03*
X0092595Y0091551D03*
X0092595Y0101551D03*
X0082595Y0101551D03*
D14*
X0079595Y0031551D02*
X0085595Y0031551D01*
X0085595Y0021551D02*
X0079595Y0021551D01*
X0149595Y0021551D02*
X0155595Y0021551D01*
X0155595Y0031551D02*
X0149595Y0031551D01*
X0174595Y0031551D02*
X0180595Y0031551D01*
X0180595Y0021551D02*
X0174595Y0021551D01*
X0244595Y0021551D02*
X0250595Y0021551D01*
X0250595Y0031551D02*
X0244595Y0031551D01*
X0269595Y0031551D02*
X0275595Y0031551D01*
X0275595Y0021551D02*
X0269595Y0021551D01*
X0339595Y0021551D02*
X0345595Y0021551D01*
X0345595Y0031551D02*
X0339595Y0031551D01*
X0379595Y0031551D02*
X0385595Y0031551D01*
X0385595Y0021551D02*
X0379595Y0021551D01*
X0449595Y0021551D02*
X0455595Y0021551D01*
X0474595Y0021551D02*
X0480595Y0021551D01*
X0480595Y0031551D02*
X0474595Y0031551D01*
X0455595Y0031551D02*
X0449595Y0031551D01*
X0544595Y0031551D02*
X0550595Y0031551D01*
X0569595Y0031551D02*
X0575595Y0031551D01*
X0575595Y0021551D02*
X0569595Y0021551D01*
X0550595Y0021551D02*
X0544595Y0021551D01*
X0639595Y0021551D02*
X0645595Y0021551D01*
X0645595Y0031551D02*
X0639595Y0031551D01*
X0095595Y0333551D02*
X0095595Y0339551D01*
X0085595Y0339551D02*
X0085595Y0333551D01*
X0070595Y0306551D02*
X0064595Y0306551D01*
X0064595Y0296551D02*
X0070595Y0296551D01*
D15*
X0082595Y0116551D03*
X0092595Y0116551D03*
X0102595Y0116551D03*
X0112595Y0116551D03*
X0122595Y0116551D03*
X0132595Y0116551D03*
X0142595Y0116551D03*
X0152595Y0116551D03*
X0177595Y0116551D03*
X0187595Y0116551D03*
X0197595Y0116551D03*
X0207595Y0116551D03*
X0217595Y0116551D03*
X0227595Y0116551D03*
X0237595Y0116551D03*
X0247595Y0116551D03*
X0272595Y0116551D03*
X0282595Y0116551D03*
X0292595Y0116551D03*
X0302595Y0116551D03*
X0312595Y0116551D03*
X0322595Y0116551D03*
X0332595Y0116551D03*
X0342595Y0116551D03*
X0382595Y0116551D03*
X0392595Y0116551D03*
X0402595Y0116551D03*
X0412595Y0116551D03*
X0422595Y0116551D03*
X0432595Y0116551D03*
X0442595Y0116551D03*
X0452595Y0116551D03*
X0477595Y0116551D03*
X0487595Y0116551D03*
X0497595Y0116551D03*
X0507595Y0116551D03*
X0517595Y0116551D03*
X0527595Y0116551D03*
X0537595Y0116551D03*
X0547595Y0116551D03*
X0572595Y0116551D03*
X0582595Y0116551D03*
X0592595Y0116551D03*
X0602595Y0116551D03*
X0612595Y0116551D03*
X0622595Y0116551D03*
X0632595Y0116551D03*
X0642595Y0116551D03*
X0642595Y0066551D03*
X0622595Y0066551D03*
X0612595Y0066551D03*
X0602595Y0066551D03*
X0592595Y0066551D03*
X0582595Y0066551D03*
X0547595Y0066551D03*
X0527595Y0066551D03*
X0517595Y0066551D03*
X0507595Y0066551D03*
X0497595Y0066551D03*
X0487595Y0066551D03*
X0452595Y0066551D03*
X0432595Y0066551D03*
X0422595Y0066551D03*
X0412595Y0066551D03*
X0402595Y0066551D03*
X0392595Y0066551D03*
X0342595Y0066551D03*
X0322595Y0066551D03*
X0312595Y0066551D03*
X0302595Y0066551D03*
X0292595Y0066551D03*
X0282595Y0066551D03*
X0247595Y0066551D03*
X0227595Y0066551D03*
X0217595Y0066551D03*
X0207595Y0066551D03*
X0197595Y0066551D03*
X0187595Y0066551D03*
X0152595Y0066551D03*
X0132595Y0066551D03*
X0122595Y0066551D03*
X0112595Y0066551D03*
X0102595Y0066551D03*
X0092595Y0066551D03*
D16*
X0082595Y0066551D03*
X0142595Y0066551D03*
X0177595Y0066551D03*
X0237595Y0066551D03*
X0272595Y0066551D03*
X0332595Y0066551D03*
X0382595Y0066551D03*
X0442595Y0066551D03*
X0477595Y0066551D03*
X0537595Y0066551D03*
X0572595Y0066551D03*
X0632595Y0066551D03*
D17*
X0617595Y0148583D02*
X0617595Y0154520D01*
X0607595Y0154520D02*
X0607595Y0148583D01*
X0597595Y0148583D02*
X0597595Y0154520D01*
X0587595Y0154520D02*
X0587595Y0148583D01*
X0577595Y0148583D02*
X0577595Y0154520D01*
X0567595Y0154520D02*
X0567595Y0148583D01*
X0557595Y0148583D02*
X0557595Y0154520D01*
X0547595Y0154520D02*
X0547595Y0148583D01*
X0527595Y0148583D02*
X0527595Y0154520D01*
X0517595Y0154520D02*
X0517595Y0148583D01*
X0507595Y0148583D02*
X0507595Y0154520D01*
X0497595Y0154520D02*
X0497595Y0148583D01*
X0487595Y0148583D02*
X0487595Y0154520D01*
X0477595Y0154520D02*
X0477595Y0148583D01*
X0467595Y0148583D02*
X0467595Y0154520D01*
X0457595Y0154520D02*
X0457595Y0148583D01*
X0437595Y0148583D02*
X0437595Y0154520D01*
X0427595Y0154520D02*
X0427595Y0148583D01*
X0417595Y0148583D02*
X0417595Y0154520D01*
X0407595Y0154520D02*
X0407595Y0148583D01*
X0397595Y0148583D02*
X0397595Y0154520D01*
X0387595Y0154520D02*
X0387595Y0148583D01*
X0392753Y0221024D02*
X0392753Y0226961D01*
X0402595Y0226961D02*
X0402595Y0221024D01*
X0412438Y0221024D02*
X0412438Y0226961D01*
X0472753Y0226961D02*
X0472753Y0221024D01*
X0482595Y0221024D02*
X0482595Y0226961D01*
X0492438Y0226961D02*
X0492438Y0221024D01*
X0552753Y0221024D02*
X0552753Y0226961D01*
X0562595Y0226961D02*
X0562595Y0221024D01*
X0572438Y0221024D02*
X0572438Y0226961D01*
X0567595Y0338583D02*
X0567595Y0344520D01*
X0557595Y0344520D02*
X0557595Y0338583D01*
X0547595Y0338583D02*
X0547595Y0344520D01*
X0537595Y0344520D02*
X0537595Y0338583D01*
X0527595Y0338583D02*
X0527595Y0344520D01*
X0507595Y0344520D02*
X0507595Y0338583D01*
X0497595Y0338583D02*
X0497595Y0344520D01*
X0487595Y0344520D02*
X0487595Y0338583D01*
X0477595Y0338583D02*
X0477595Y0344520D01*
X0467595Y0344520D02*
X0467595Y0338583D01*
X0457595Y0338583D02*
X0457595Y0344520D01*
X0447595Y0344520D02*
X0447595Y0338583D01*
X0437595Y0338583D02*
X0437595Y0344520D01*
X0422595Y0344520D02*
X0422595Y0338583D01*
X0412595Y0338583D02*
X0412595Y0344520D01*
X0402595Y0344520D02*
X0402595Y0338583D01*
X0392595Y0338583D02*
X0392595Y0344520D01*
X0382595Y0344520D02*
X0382595Y0338583D01*
X0372595Y0338583D02*
X0372595Y0344520D01*
X0362595Y0344520D02*
X0362595Y0338583D01*
X0352595Y0338583D02*
X0352595Y0344520D01*
X0332438Y0226961D02*
X0332438Y0221024D01*
X0322595Y0221024D02*
X0322595Y0226961D01*
X0312753Y0226961D02*
X0312753Y0221024D01*
X0252438Y0221024D02*
X0252438Y0226961D01*
X0242595Y0226961D02*
X0242595Y0221024D01*
X0232753Y0221024D02*
X0232753Y0226961D01*
X0172438Y0226961D02*
X0172438Y0221024D01*
X0162595Y0221024D02*
X0162595Y0226961D01*
X0152753Y0226961D02*
X0152753Y0221024D01*
X0087595Y0223583D02*
X0087595Y0229520D01*
X0077595Y0229520D02*
X0077595Y0223583D01*
X0067595Y0223583D02*
X0067595Y0229520D01*
X0577595Y0338583D02*
X0577595Y0344520D01*
X0587595Y0344520D02*
X0587595Y0338583D01*
X0597595Y0338583D02*
X0597595Y0344520D01*
D18*
X0581493Y0251551D03*
X0543698Y0251551D03*
X0501493Y0251551D03*
X0463698Y0251551D03*
X0421493Y0251551D03*
X0383698Y0251551D03*
X0341493Y0251551D03*
X0303698Y0251551D03*
X0261493Y0251551D03*
X0223698Y0251551D03*
X0181493Y0251551D03*
X0143698Y0251551D03*
D19*
X0151453Y0204346D03*
X0133737Y0204268D03*
X0133737Y0178756D03*
X0151453Y0178756D03*
X0173737Y0178756D03*
X0191453Y0178756D03*
X0213737Y0178756D03*
X0231453Y0178756D03*
X0253737Y0178756D03*
X0271453Y0178756D03*
X0293737Y0178756D03*
X0311453Y0178756D03*
X0333737Y0178756D03*
X0351453Y0178756D03*
X0373737Y0178756D03*
X0391453Y0178756D03*
X0413737Y0178756D03*
X0431453Y0178756D03*
X0453737Y0178756D03*
X0471453Y0178756D03*
X0493737Y0178756D03*
X0511453Y0178756D03*
X0533737Y0178756D03*
X0551453Y0178756D03*
X0573737Y0178756D03*
X0591453Y0178756D03*
X0627595Y0181551D03*
X0637595Y0181551D03*
X0637595Y0191551D03*
X0627595Y0191551D03*
X0627595Y0201551D03*
X0637595Y0201551D03*
X0637595Y0211551D03*
X0627595Y0211551D03*
X0627595Y0221551D03*
X0637595Y0221551D03*
X0637595Y0231551D03*
X0627595Y0231551D03*
X0627595Y0241551D03*
X0637595Y0241551D03*
X0637595Y0251551D03*
X0627595Y0251551D03*
X0627595Y0261551D03*
X0637595Y0261551D03*
X0637595Y0271551D03*
X0627595Y0271551D03*
X0627595Y0281551D03*
X0637595Y0281551D03*
X0637595Y0291551D03*
X0627595Y0291551D03*
X0627595Y0301551D03*
X0637595Y0301551D03*
X0637595Y0311551D03*
X0627595Y0311551D03*
X0627595Y0321551D03*
X0637595Y0321551D03*
X0637595Y0331551D03*
X0627595Y0331551D03*
X0627595Y0341551D03*
X0637595Y0341551D03*
X0591453Y0204346D03*
X0573737Y0204268D03*
X0551453Y0204346D03*
X0533737Y0204268D03*
X0511453Y0204346D03*
X0493737Y0204268D03*
X0471453Y0204346D03*
X0453737Y0204268D03*
X0431453Y0204346D03*
X0413737Y0204268D03*
X0391453Y0204346D03*
X0373737Y0204268D03*
X0351453Y0204346D03*
X0333737Y0204268D03*
X0311453Y0204346D03*
X0293737Y0204268D03*
X0271453Y0204346D03*
X0253737Y0204268D03*
X0231453Y0204346D03*
X0213737Y0204268D03*
X0191453Y0204346D03*
X0173737Y0204268D03*
X0627595Y0171551D03*
X0637595Y0171551D03*
D20*
X0628264Y0044224D02*
X0628264Y0038878D01*
X0614485Y0038878D02*
X0614485Y0044224D01*
X0600705Y0044224D02*
X0600705Y0038878D01*
X0586926Y0038878D02*
X0586926Y0044224D01*
X0533264Y0044224D02*
X0533264Y0038878D01*
X0519485Y0038878D02*
X0519485Y0044224D01*
X0505705Y0044224D02*
X0505705Y0038878D01*
X0491926Y0038878D02*
X0491926Y0044224D01*
X0438264Y0044224D02*
X0438264Y0038878D01*
X0424485Y0038878D02*
X0424485Y0044224D01*
X0410705Y0044224D02*
X0410705Y0038878D01*
X0396926Y0038878D02*
X0396926Y0044224D01*
X0328264Y0044224D02*
X0328264Y0038878D01*
X0314485Y0038878D02*
X0314485Y0044224D01*
X0300705Y0044224D02*
X0300705Y0038878D01*
X0286926Y0038878D02*
X0286926Y0044224D01*
X0233264Y0044224D02*
X0233264Y0038878D01*
X0219485Y0038878D02*
X0219485Y0044224D01*
X0205705Y0044224D02*
X0205705Y0038878D01*
X0191926Y0038878D02*
X0191926Y0044224D01*
X0138264Y0044224D02*
X0138264Y0038878D01*
X0124485Y0038878D02*
X0124485Y0044224D01*
X0110705Y0044224D02*
X0110705Y0038878D01*
X0096926Y0038878D02*
X0096926Y0044224D01*
X0080268Y0194661D02*
X0074922Y0194661D01*
X0074922Y0208441D02*
X0080268Y0208441D01*
D21*
X0332595Y0338751D02*
X0332595Y0344351D01*
X0342595Y0344351D02*
X0342595Y0338751D01*
X0367595Y0154351D02*
X0367595Y0148751D01*
X0377595Y0148751D02*
X0377595Y0154351D01*
D22*
X0387595Y0285953D03*
X0387595Y0297150D03*
X0417595Y0297150D03*
X0417595Y0285953D03*
X0467595Y0285953D03*
X0467595Y0297150D03*
X0497595Y0297150D03*
X0497595Y0285953D03*
X0547595Y0285953D03*
X0547595Y0297150D03*
X0577595Y0297150D03*
X0577595Y0285953D03*
X0337595Y0285953D03*
X0337595Y0297150D03*
X0307595Y0297150D03*
X0307595Y0285953D03*
X0257595Y0285953D03*
X0257595Y0297150D03*
X0227595Y0297150D03*
X0227595Y0285953D03*
X0177595Y0285953D03*
X0177595Y0297150D03*
X0147595Y0297150D03*
X0147595Y0285953D03*
X0082595Y0280953D03*
X0082595Y0292150D03*
X0082595Y0305953D03*
X0082595Y0317150D03*
D23*
X0097595Y0317063D03*
X0097595Y0306039D03*
X0097595Y0292063D03*
X0097595Y0281039D03*
X0092595Y0267063D03*
X0082595Y0267063D03*
X0082595Y0256039D03*
X0092595Y0256039D03*
X0102595Y0256039D03*
X0102595Y0267063D03*
X0147595Y0311039D03*
X0147595Y0322063D03*
X0177595Y0322063D03*
X0177595Y0311039D03*
X0227595Y0311039D03*
X0227595Y0322063D03*
X0257595Y0322063D03*
X0257595Y0311039D03*
X0307595Y0311039D03*
X0307595Y0322063D03*
X0337595Y0322063D03*
X0337595Y0311039D03*
X0387595Y0311039D03*
X0387595Y0322063D03*
X0417595Y0322063D03*
X0417595Y0311039D03*
X0467595Y0311039D03*
X0467595Y0322063D03*
X0497595Y0322063D03*
X0497595Y0311039D03*
X0547595Y0311039D03*
X0547595Y0322063D03*
X0577595Y0322063D03*
X0577595Y0311039D03*
D24*
X0067595Y0268146D03*
X0067595Y0254957D03*
D25*
X0056095Y0341551D02*
X0056097Y0341712D01*
X0056103Y0341872D01*
X0056113Y0342033D01*
X0056127Y0342193D01*
X0056145Y0342353D01*
X0056166Y0342512D01*
X0056192Y0342671D01*
X0056222Y0342829D01*
X0056255Y0342986D01*
X0056293Y0343143D01*
X0056334Y0343298D01*
X0056379Y0343452D01*
X0056428Y0343605D01*
X0056481Y0343757D01*
X0056537Y0343908D01*
X0056598Y0344057D01*
X0056661Y0344205D01*
X0056729Y0344351D01*
X0056800Y0344495D01*
X0056874Y0344637D01*
X0056952Y0344778D01*
X0057034Y0344916D01*
X0057119Y0345053D01*
X0057207Y0345187D01*
X0057299Y0345319D01*
X0057394Y0345449D01*
X0057492Y0345577D01*
X0057593Y0345702D01*
X0057697Y0345824D01*
X0057804Y0345944D01*
X0057914Y0346061D01*
X0058027Y0346176D01*
X0058143Y0346287D01*
X0058262Y0346396D01*
X0058383Y0346501D01*
X0058507Y0346604D01*
X0058633Y0346704D01*
X0058761Y0346800D01*
X0058892Y0346893D01*
X0059026Y0346983D01*
X0059161Y0347070D01*
X0059299Y0347153D01*
X0059438Y0347233D01*
X0059580Y0347309D01*
X0059723Y0347382D01*
X0059868Y0347451D01*
X0060015Y0347517D01*
X0060163Y0347579D01*
X0060313Y0347637D01*
X0060464Y0347692D01*
X0060617Y0347743D01*
X0060771Y0347790D01*
X0060926Y0347833D01*
X0061082Y0347872D01*
X0061238Y0347908D01*
X0061396Y0347939D01*
X0061554Y0347967D01*
X0061713Y0347991D01*
X0061873Y0348011D01*
X0062033Y0348027D01*
X0062193Y0348039D01*
X0062354Y0348047D01*
X0062515Y0348051D01*
X0062675Y0348051D01*
X0062836Y0348047D01*
X0062997Y0348039D01*
X0063157Y0348027D01*
X0063317Y0348011D01*
X0063477Y0347991D01*
X0063636Y0347967D01*
X0063794Y0347939D01*
X0063952Y0347908D01*
X0064108Y0347872D01*
X0064264Y0347833D01*
X0064419Y0347790D01*
X0064573Y0347743D01*
X0064726Y0347692D01*
X0064877Y0347637D01*
X0065027Y0347579D01*
X0065175Y0347517D01*
X0065322Y0347451D01*
X0065467Y0347382D01*
X0065610Y0347309D01*
X0065752Y0347233D01*
X0065891Y0347153D01*
X0066029Y0347070D01*
X0066164Y0346983D01*
X0066298Y0346893D01*
X0066429Y0346800D01*
X0066557Y0346704D01*
X0066683Y0346604D01*
X0066807Y0346501D01*
X0066928Y0346396D01*
X0067047Y0346287D01*
X0067163Y0346176D01*
X0067276Y0346061D01*
X0067386Y0345944D01*
X0067493Y0345824D01*
X0067597Y0345702D01*
X0067698Y0345577D01*
X0067796Y0345449D01*
X0067891Y0345319D01*
X0067983Y0345187D01*
X0068071Y0345053D01*
X0068156Y0344916D01*
X0068238Y0344778D01*
X0068316Y0344637D01*
X0068390Y0344495D01*
X0068461Y0344351D01*
X0068529Y0344205D01*
X0068592Y0344057D01*
X0068653Y0343908D01*
X0068709Y0343757D01*
X0068762Y0343605D01*
X0068811Y0343452D01*
X0068856Y0343298D01*
X0068897Y0343143D01*
X0068935Y0342986D01*
X0068968Y0342829D01*
X0068998Y0342671D01*
X0069024Y0342512D01*
X0069045Y0342353D01*
X0069063Y0342193D01*
X0069077Y0342033D01*
X0069087Y0341872D01*
X0069093Y0341712D01*
X0069095Y0341551D01*
X0069093Y0341390D01*
X0069087Y0341230D01*
X0069077Y0341069D01*
X0069063Y0340909D01*
X0069045Y0340749D01*
X0069024Y0340590D01*
X0068998Y0340431D01*
X0068968Y0340273D01*
X0068935Y0340116D01*
X0068897Y0339959D01*
X0068856Y0339804D01*
X0068811Y0339650D01*
X0068762Y0339497D01*
X0068709Y0339345D01*
X0068653Y0339194D01*
X0068592Y0339045D01*
X0068529Y0338897D01*
X0068461Y0338751D01*
X0068390Y0338607D01*
X0068316Y0338465D01*
X0068238Y0338324D01*
X0068156Y0338186D01*
X0068071Y0338049D01*
X0067983Y0337915D01*
X0067891Y0337783D01*
X0067796Y0337653D01*
X0067698Y0337525D01*
X0067597Y0337400D01*
X0067493Y0337278D01*
X0067386Y0337158D01*
X0067276Y0337041D01*
X0067163Y0336926D01*
X0067047Y0336815D01*
X0066928Y0336706D01*
X0066807Y0336601D01*
X0066683Y0336498D01*
X0066557Y0336398D01*
X0066429Y0336302D01*
X0066298Y0336209D01*
X0066164Y0336119D01*
X0066029Y0336032D01*
X0065891Y0335949D01*
X0065752Y0335869D01*
X0065610Y0335793D01*
X0065467Y0335720D01*
X0065322Y0335651D01*
X0065175Y0335585D01*
X0065027Y0335523D01*
X0064877Y0335465D01*
X0064726Y0335410D01*
X0064573Y0335359D01*
X0064419Y0335312D01*
X0064264Y0335269D01*
X0064108Y0335230D01*
X0063952Y0335194D01*
X0063794Y0335163D01*
X0063636Y0335135D01*
X0063477Y0335111D01*
X0063317Y0335091D01*
X0063157Y0335075D01*
X0062997Y0335063D01*
X0062836Y0335055D01*
X0062675Y0335051D01*
X0062515Y0335051D01*
X0062354Y0335055D01*
X0062193Y0335063D01*
X0062033Y0335075D01*
X0061873Y0335091D01*
X0061713Y0335111D01*
X0061554Y0335135D01*
X0061396Y0335163D01*
X0061238Y0335194D01*
X0061082Y0335230D01*
X0060926Y0335269D01*
X0060771Y0335312D01*
X0060617Y0335359D01*
X0060464Y0335410D01*
X0060313Y0335465D01*
X0060163Y0335523D01*
X0060015Y0335585D01*
X0059868Y0335651D01*
X0059723Y0335720D01*
X0059580Y0335793D01*
X0059438Y0335869D01*
X0059299Y0335949D01*
X0059161Y0336032D01*
X0059026Y0336119D01*
X0058892Y0336209D01*
X0058761Y0336302D01*
X0058633Y0336398D01*
X0058507Y0336498D01*
X0058383Y0336601D01*
X0058262Y0336706D01*
X0058143Y0336815D01*
X0058027Y0336926D01*
X0057914Y0337041D01*
X0057804Y0337158D01*
X0057697Y0337278D01*
X0057593Y0337400D01*
X0057492Y0337525D01*
X0057394Y0337653D01*
X0057299Y0337783D01*
X0057207Y0337915D01*
X0057119Y0338049D01*
X0057034Y0338186D01*
X0056952Y0338324D01*
X0056874Y0338465D01*
X0056800Y0338607D01*
X0056729Y0338751D01*
X0056661Y0338897D01*
X0056598Y0339045D01*
X0056537Y0339194D01*
X0056481Y0339345D01*
X0056428Y0339497D01*
X0056379Y0339650D01*
X0056334Y0339804D01*
X0056293Y0339959D01*
X0056255Y0340116D01*
X0056222Y0340273D01*
X0056192Y0340431D01*
X0056166Y0340590D01*
X0056145Y0340749D01*
X0056127Y0340909D01*
X0056113Y0341069D01*
X0056103Y0341230D01*
X0056097Y0341390D01*
X0056095Y0341551D01*
X0056095Y0026551D02*
X0056097Y0026712D01*
X0056103Y0026872D01*
X0056113Y0027033D01*
X0056127Y0027193D01*
X0056145Y0027353D01*
X0056166Y0027512D01*
X0056192Y0027671D01*
X0056222Y0027829D01*
X0056255Y0027986D01*
X0056293Y0028143D01*
X0056334Y0028298D01*
X0056379Y0028452D01*
X0056428Y0028605D01*
X0056481Y0028757D01*
X0056537Y0028908D01*
X0056598Y0029057D01*
X0056661Y0029205D01*
X0056729Y0029351D01*
X0056800Y0029495D01*
X0056874Y0029637D01*
X0056952Y0029778D01*
X0057034Y0029916D01*
X0057119Y0030053D01*
X0057207Y0030187D01*
X0057299Y0030319D01*
X0057394Y0030449D01*
X0057492Y0030577D01*
X0057593Y0030702D01*
X0057697Y0030824D01*
X0057804Y0030944D01*
X0057914Y0031061D01*
X0058027Y0031176D01*
X0058143Y0031287D01*
X0058262Y0031396D01*
X0058383Y0031501D01*
X0058507Y0031604D01*
X0058633Y0031704D01*
X0058761Y0031800D01*
X0058892Y0031893D01*
X0059026Y0031983D01*
X0059161Y0032070D01*
X0059299Y0032153D01*
X0059438Y0032233D01*
X0059580Y0032309D01*
X0059723Y0032382D01*
X0059868Y0032451D01*
X0060015Y0032517D01*
X0060163Y0032579D01*
X0060313Y0032637D01*
X0060464Y0032692D01*
X0060617Y0032743D01*
X0060771Y0032790D01*
X0060926Y0032833D01*
X0061082Y0032872D01*
X0061238Y0032908D01*
X0061396Y0032939D01*
X0061554Y0032967D01*
X0061713Y0032991D01*
X0061873Y0033011D01*
X0062033Y0033027D01*
X0062193Y0033039D01*
X0062354Y0033047D01*
X0062515Y0033051D01*
X0062675Y0033051D01*
X0062836Y0033047D01*
X0062997Y0033039D01*
X0063157Y0033027D01*
X0063317Y0033011D01*
X0063477Y0032991D01*
X0063636Y0032967D01*
X0063794Y0032939D01*
X0063952Y0032908D01*
X0064108Y0032872D01*
X0064264Y0032833D01*
X0064419Y0032790D01*
X0064573Y0032743D01*
X0064726Y0032692D01*
X0064877Y0032637D01*
X0065027Y0032579D01*
X0065175Y0032517D01*
X0065322Y0032451D01*
X0065467Y0032382D01*
X0065610Y0032309D01*
X0065752Y0032233D01*
X0065891Y0032153D01*
X0066029Y0032070D01*
X0066164Y0031983D01*
X0066298Y0031893D01*
X0066429Y0031800D01*
X0066557Y0031704D01*
X0066683Y0031604D01*
X0066807Y0031501D01*
X0066928Y0031396D01*
X0067047Y0031287D01*
X0067163Y0031176D01*
X0067276Y0031061D01*
X0067386Y0030944D01*
X0067493Y0030824D01*
X0067597Y0030702D01*
X0067698Y0030577D01*
X0067796Y0030449D01*
X0067891Y0030319D01*
X0067983Y0030187D01*
X0068071Y0030053D01*
X0068156Y0029916D01*
X0068238Y0029778D01*
X0068316Y0029637D01*
X0068390Y0029495D01*
X0068461Y0029351D01*
X0068529Y0029205D01*
X0068592Y0029057D01*
X0068653Y0028908D01*
X0068709Y0028757D01*
X0068762Y0028605D01*
X0068811Y0028452D01*
X0068856Y0028298D01*
X0068897Y0028143D01*
X0068935Y0027986D01*
X0068968Y0027829D01*
X0068998Y0027671D01*
X0069024Y0027512D01*
X0069045Y0027353D01*
X0069063Y0027193D01*
X0069077Y0027033D01*
X0069087Y0026872D01*
X0069093Y0026712D01*
X0069095Y0026551D01*
X0069093Y0026390D01*
X0069087Y0026230D01*
X0069077Y0026069D01*
X0069063Y0025909D01*
X0069045Y0025749D01*
X0069024Y0025590D01*
X0068998Y0025431D01*
X0068968Y0025273D01*
X0068935Y0025116D01*
X0068897Y0024959D01*
X0068856Y0024804D01*
X0068811Y0024650D01*
X0068762Y0024497D01*
X0068709Y0024345D01*
X0068653Y0024194D01*
X0068592Y0024045D01*
X0068529Y0023897D01*
X0068461Y0023751D01*
X0068390Y0023607D01*
X0068316Y0023465D01*
X0068238Y0023324D01*
X0068156Y0023186D01*
X0068071Y0023049D01*
X0067983Y0022915D01*
X0067891Y0022783D01*
X0067796Y0022653D01*
X0067698Y0022525D01*
X0067597Y0022400D01*
X0067493Y0022278D01*
X0067386Y0022158D01*
X0067276Y0022041D01*
X0067163Y0021926D01*
X0067047Y0021815D01*
X0066928Y0021706D01*
X0066807Y0021601D01*
X0066683Y0021498D01*
X0066557Y0021398D01*
X0066429Y0021302D01*
X0066298Y0021209D01*
X0066164Y0021119D01*
X0066029Y0021032D01*
X0065891Y0020949D01*
X0065752Y0020869D01*
X0065610Y0020793D01*
X0065467Y0020720D01*
X0065322Y0020651D01*
X0065175Y0020585D01*
X0065027Y0020523D01*
X0064877Y0020465D01*
X0064726Y0020410D01*
X0064573Y0020359D01*
X0064419Y0020312D01*
X0064264Y0020269D01*
X0064108Y0020230D01*
X0063952Y0020194D01*
X0063794Y0020163D01*
X0063636Y0020135D01*
X0063477Y0020111D01*
X0063317Y0020091D01*
X0063157Y0020075D01*
X0062997Y0020063D01*
X0062836Y0020055D01*
X0062675Y0020051D01*
X0062515Y0020051D01*
X0062354Y0020055D01*
X0062193Y0020063D01*
X0062033Y0020075D01*
X0061873Y0020091D01*
X0061713Y0020111D01*
X0061554Y0020135D01*
X0061396Y0020163D01*
X0061238Y0020194D01*
X0061082Y0020230D01*
X0060926Y0020269D01*
X0060771Y0020312D01*
X0060617Y0020359D01*
X0060464Y0020410D01*
X0060313Y0020465D01*
X0060163Y0020523D01*
X0060015Y0020585D01*
X0059868Y0020651D01*
X0059723Y0020720D01*
X0059580Y0020793D01*
X0059438Y0020869D01*
X0059299Y0020949D01*
X0059161Y0021032D01*
X0059026Y0021119D01*
X0058892Y0021209D01*
X0058761Y0021302D01*
X0058633Y0021398D01*
X0058507Y0021498D01*
X0058383Y0021601D01*
X0058262Y0021706D01*
X0058143Y0021815D01*
X0058027Y0021926D01*
X0057914Y0022041D01*
X0057804Y0022158D01*
X0057697Y0022278D01*
X0057593Y0022400D01*
X0057492Y0022525D01*
X0057394Y0022653D01*
X0057299Y0022783D01*
X0057207Y0022915D01*
X0057119Y0023049D01*
X0057034Y0023186D01*
X0056952Y0023324D01*
X0056874Y0023465D01*
X0056800Y0023607D01*
X0056729Y0023751D01*
X0056661Y0023897D01*
X0056598Y0024045D01*
X0056537Y0024194D01*
X0056481Y0024345D01*
X0056428Y0024497D01*
X0056379Y0024650D01*
X0056334Y0024804D01*
X0056293Y0024959D01*
X0056255Y0025116D01*
X0056222Y0025273D01*
X0056192Y0025431D01*
X0056166Y0025590D01*
X0056145Y0025749D01*
X0056127Y0025909D01*
X0056113Y0026069D01*
X0056103Y0026230D01*
X0056097Y0026390D01*
X0056095Y0026551D01*
X0356095Y0026551D02*
X0356097Y0026712D01*
X0356103Y0026872D01*
X0356113Y0027033D01*
X0356127Y0027193D01*
X0356145Y0027353D01*
X0356166Y0027512D01*
X0356192Y0027671D01*
X0356222Y0027829D01*
X0356255Y0027986D01*
X0356293Y0028143D01*
X0356334Y0028298D01*
X0356379Y0028452D01*
X0356428Y0028605D01*
X0356481Y0028757D01*
X0356537Y0028908D01*
X0356598Y0029057D01*
X0356661Y0029205D01*
X0356729Y0029351D01*
X0356800Y0029495D01*
X0356874Y0029637D01*
X0356952Y0029778D01*
X0357034Y0029916D01*
X0357119Y0030053D01*
X0357207Y0030187D01*
X0357299Y0030319D01*
X0357394Y0030449D01*
X0357492Y0030577D01*
X0357593Y0030702D01*
X0357697Y0030824D01*
X0357804Y0030944D01*
X0357914Y0031061D01*
X0358027Y0031176D01*
X0358143Y0031287D01*
X0358262Y0031396D01*
X0358383Y0031501D01*
X0358507Y0031604D01*
X0358633Y0031704D01*
X0358761Y0031800D01*
X0358892Y0031893D01*
X0359026Y0031983D01*
X0359161Y0032070D01*
X0359299Y0032153D01*
X0359438Y0032233D01*
X0359580Y0032309D01*
X0359723Y0032382D01*
X0359868Y0032451D01*
X0360015Y0032517D01*
X0360163Y0032579D01*
X0360313Y0032637D01*
X0360464Y0032692D01*
X0360617Y0032743D01*
X0360771Y0032790D01*
X0360926Y0032833D01*
X0361082Y0032872D01*
X0361238Y0032908D01*
X0361396Y0032939D01*
X0361554Y0032967D01*
X0361713Y0032991D01*
X0361873Y0033011D01*
X0362033Y0033027D01*
X0362193Y0033039D01*
X0362354Y0033047D01*
X0362515Y0033051D01*
X0362675Y0033051D01*
X0362836Y0033047D01*
X0362997Y0033039D01*
X0363157Y0033027D01*
X0363317Y0033011D01*
X0363477Y0032991D01*
X0363636Y0032967D01*
X0363794Y0032939D01*
X0363952Y0032908D01*
X0364108Y0032872D01*
X0364264Y0032833D01*
X0364419Y0032790D01*
X0364573Y0032743D01*
X0364726Y0032692D01*
X0364877Y0032637D01*
X0365027Y0032579D01*
X0365175Y0032517D01*
X0365322Y0032451D01*
X0365467Y0032382D01*
X0365610Y0032309D01*
X0365752Y0032233D01*
X0365891Y0032153D01*
X0366029Y0032070D01*
X0366164Y0031983D01*
X0366298Y0031893D01*
X0366429Y0031800D01*
X0366557Y0031704D01*
X0366683Y0031604D01*
X0366807Y0031501D01*
X0366928Y0031396D01*
X0367047Y0031287D01*
X0367163Y0031176D01*
X0367276Y0031061D01*
X0367386Y0030944D01*
X0367493Y0030824D01*
X0367597Y0030702D01*
X0367698Y0030577D01*
X0367796Y0030449D01*
X0367891Y0030319D01*
X0367983Y0030187D01*
X0368071Y0030053D01*
X0368156Y0029916D01*
X0368238Y0029778D01*
X0368316Y0029637D01*
X0368390Y0029495D01*
X0368461Y0029351D01*
X0368529Y0029205D01*
X0368592Y0029057D01*
X0368653Y0028908D01*
X0368709Y0028757D01*
X0368762Y0028605D01*
X0368811Y0028452D01*
X0368856Y0028298D01*
X0368897Y0028143D01*
X0368935Y0027986D01*
X0368968Y0027829D01*
X0368998Y0027671D01*
X0369024Y0027512D01*
X0369045Y0027353D01*
X0369063Y0027193D01*
X0369077Y0027033D01*
X0369087Y0026872D01*
X0369093Y0026712D01*
X0369095Y0026551D01*
X0369093Y0026390D01*
X0369087Y0026230D01*
X0369077Y0026069D01*
X0369063Y0025909D01*
X0369045Y0025749D01*
X0369024Y0025590D01*
X0368998Y0025431D01*
X0368968Y0025273D01*
X0368935Y0025116D01*
X0368897Y0024959D01*
X0368856Y0024804D01*
X0368811Y0024650D01*
X0368762Y0024497D01*
X0368709Y0024345D01*
X0368653Y0024194D01*
X0368592Y0024045D01*
X0368529Y0023897D01*
X0368461Y0023751D01*
X0368390Y0023607D01*
X0368316Y0023465D01*
X0368238Y0023324D01*
X0368156Y0023186D01*
X0368071Y0023049D01*
X0367983Y0022915D01*
X0367891Y0022783D01*
X0367796Y0022653D01*
X0367698Y0022525D01*
X0367597Y0022400D01*
X0367493Y0022278D01*
X0367386Y0022158D01*
X0367276Y0022041D01*
X0367163Y0021926D01*
X0367047Y0021815D01*
X0366928Y0021706D01*
X0366807Y0021601D01*
X0366683Y0021498D01*
X0366557Y0021398D01*
X0366429Y0021302D01*
X0366298Y0021209D01*
X0366164Y0021119D01*
X0366029Y0021032D01*
X0365891Y0020949D01*
X0365752Y0020869D01*
X0365610Y0020793D01*
X0365467Y0020720D01*
X0365322Y0020651D01*
X0365175Y0020585D01*
X0365027Y0020523D01*
X0364877Y0020465D01*
X0364726Y0020410D01*
X0364573Y0020359D01*
X0364419Y0020312D01*
X0364264Y0020269D01*
X0364108Y0020230D01*
X0363952Y0020194D01*
X0363794Y0020163D01*
X0363636Y0020135D01*
X0363477Y0020111D01*
X0363317Y0020091D01*
X0363157Y0020075D01*
X0362997Y0020063D01*
X0362836Y0020055D01*
X0362675Y0020051D01*
X0362515Y0020051D01*
X0362354Y0020055D01*
X0362193Y0020063D01*
X0362033Y0020075D01*
X0361873Y0020091D01*
X0361713Y0020111D01*
X0361554Y0020135D01*
X0361396Y0020163D01*
X0361238Y0020194D01*
X0361082Y0020230D01*
X0360926Y0020269D01*
X0360771Y0020312D01*
X0360617Y0020359D01*
X0360464Y0020410D01*
X0360313Y0020465D01*
X0360163Y0020523D01*
X0360015Y0020585D01*
X0359868Y0020651D01*
X0359723Y0020720D01*
X0359580Y0020793D01*
X0359438Y0020869D01*
X0359299Y0020949D01*
X0359161Y0021032D01*
X0359026Y0021119D01*
X0358892Y0021209D01*
X0358761Y0021302D01*
X0358633Y0021398D01*
X0358507Y0021498D01*
X0358383Y0021601D01*
X0358262Y0021706D01*
X0358143Y0021815D01*
X0358027Y0021926D01*
X0357914Y0022041D01*
X0357804Y0022158D01*
X0357697Y0022278D01*
X0357593Y0022400D01*
X0357492Y0022525D01*
X0357394Y0022653D01*
X0357299Y0022783D01*
X0357207Y0022915D01*
X0357119Y0023049D01*
X0357034Y0023186D01*
X0356952Y0023324D01*
X0356874Y0023465D01*
X0356800Y0023607D01*
X0356729Y0023751D01*
X0356661Y0023897D01*
X0356598Y0024045D01*
X0356537Y0024194D01*
X0356481Y0024345D01*
X0356428Y0024497D01*
X0356379Y0024650D01*
X0356334Y0024804D01*
X0356293Y0024959D01*
X0356255Y0025116D01*
X0356222Y0025273D01*
X0356192Y0025431D01*
X0356166Y0025590D01*
X0356145Y0025749D01*
X0356127Y0025909D01*
X0356113Y0026069D01*
X0356103Y0026230D01*
X0356097Y0026390D01*
X0356095Y0026551D01*
X0656095Y0026551D02*
X0656097Y0026712D01*
X0656103Y0026872D01*
X0656113Y0027033D01*
X0656127Y0027193D01*
X0656145Y0027353D01*
X0656166Y0027512D01*
X0656192Y0027671D01*
X0656222Y0027829D01*
X0656255Y0027986D01*
X0656293Y0028143D01*
X0656334Y0028298D01*
X0656379Y0028452D01*
X0656428Y0028605D01*
X0656481Y0028757D01*
X0656537Y0028908D01*
X0656598Y0029057D01*
X0656661Y0029205D01*
X0656729Y0029351D01*
X0656800Y0029495D01*
X0656874Y0029637D01*
X0656952Y0029778D01*
X0657034Y0029916D01*
X0657119Y0030053D01*
X0657207Y0030187D01*
X0657299Y0030319D01*
X0657394Y0030449D01*
X0657492Y0030577D01*
X0657593Y0030702D01*
X0657697Y0030824D01*
X0657804Y0030944D01*
X0657914Y0031061D01*
X0658027Y0031176D01*
X0658143Y0031287D01*
X0658262Y0031396D01*
X0658383Y0031501D01*
X0658507Y0031604D01*
X0658633Y0031704D01*
X0658761Y0031800D01*
X0658892Y0031893D01*
X0659026Y0031983D01*
X0659161Y0032070D01*
X0659299Y0032153D01*
X0659438Y0032233D01*
X0659580Y0032309D01*
X0659723Y0032382D01*
X0659868Y0032451D01*
X0660015Y0032517D01*
X0660163Y0032579D01*
X0660313Y0032637D01*
X0660464Y0032692D01*
X0660617Y0032743D01*
X0660771Y0032790D01*
X0660926Y0032833D01*
X0661082Y0032872D01*
X0661238Y0032908D01*
X0661396Y0032939D01*
X0661554Y0032967D01*
X0661713Y0032991D01*
X0661873Y0033011D01*
X0662033Y0033027D01*
X0662193Y0033039D01*
X0662354Y0033047D01*
X0662515Y0033051D01*
X0662675Y0033051D01*
X0662836Y0033047D01*
X0662997Y0033039D01*
X0663157Y0033027D01*
X0663317Y0033011D01*
X0663477Y0032991D01*
X0663636Y0032967D01*
X0663794Y0032939D01*
X0663952Y0032908D01*
X0664108Y0032872D01*
X0664264Y0032833D01*
X0664419Y0032790D01*
X0664573Y0032743D01*
X0664726Y0032692D01*
X0664877Y0032637D01*
X0665027Y0032579D01*
X0665175Y0032517D01*
X0665322Y0032451D01*
X0665467Y0032382D01*
X0665610Y0032309D01*
X0665752Y0032233D01*
X0665891Y0032153D01*
X0666029Y0032070D01*
X0666164Y0031983D01*
X0666298Y0031893D01*
X0666429Y0031800D01*
X0666557Y0031704D01*
X0666683Y0031604D01*
X0666807Y0031501D01*
X0666928Y0031396D01*
X0667047Y0031287D01*
X0667163Y0031176D01*
X0667276Y0031061D01*
X0667386Y0030944D01*
X0667493Y0030824D01*
X0667597Y0030702D01*
X0667698Y0030577D01*
X0667796Y0030449D01*
X0667891Y0030319D01*
X0667983Y0030187D01*
X0668071Y0030053D01*
X0668156Y0029916D01*
X0668238Y0029778D01*
X0668316Y0029637D01*
X0668390Y0029495D01*
X0668461Y0029351D01*
X0668529Y0029205D01*
X0668592Y0029057D01*
X0668653Y0028908D01*
X0668709Y0028757D01*
X0668762Y0028605D01*
X0668811Y0028452D01*
X0668856Y0028298D01*
X0668897Y0028143D01*
X0668935Y0027986D01*
X0668968Y0027829D01*
X0668998Y0027671D01*
X0669024Y0027512D01*
X0669045Y0027353D01*
X0669063Y0027193D01*
X0669077Y0027033D01*
X0669087Y0026872D01*
X0669093Y0026712D01*
X0669095Y0026551D01*
X0669093Y0026390D01*
X0669087Y0026230D01*
X0669077Y0026069D01*
X0669063Y0025909D01*
X0669045Y0025749D01*
X0669024Y0025590D01*
X0668998Y0025431D01*
X0668968Y0025273D01*
X0668935Y0025116D01*
X0668897Y0024959D01*
X0668856Y0024804D01*
X0668811Y0024650D01*
X0668762Y0024497D01*
X0668709Y0024345D01*
X0668653Y0024194D01*
X0668592Y0024045D01*
X0668529Y0023897D01*
X0668461Y0023751D01*
X0668390Y0023607D01*
X0668316Y0023465D01*
X0668238Y0023324D01*
X0668156Y0023186D01*
X0668071Y0023049D01*
X0667983Y0022915D01*
X0667891Y0022783D01*
X0667796Y0022653D01*
X0667698Y0022525D01*
X0667597Y0022400D01*
X0667493Y0022278D01*
X0667386Y0022158D01*
X0667276Y0022041D01*
X0667163Y0021926D01*
X0667047Y0021815D01*
X0666928Y0021706D01*
X0666807Y0021601D01*
X0666683Y0021498D01*
X0666557Y0021398D01*
X0666429Y0021302D01*
X0666298Y0021209D01*
X0666164Y0021119D01*
X0666029Y0021032D01*
X0665891Y0020949D01*
X0665752Y0020869D01*
X0665610Y0020793D01*
X0665467Y0020720D01*
X0665322Y0020651D01*
X0665175Y0020585D01*
X0665027Y0020523D01*
X0664877Y0020465D01*
X0664726Y0020410D01*
X0664573Y0020359D01*
X0664419Y0020312D01*
X0664264Y0020269D01*
X0664108Y0020230D01*
X0663952Y0020194D01*
X0663794Y0020163D01*
X0663636Y0020135D01*
X0663477Y0020111D01*
X0663317Y0020091D01*
X0663157Y0020075D01*
X0662997Y0020063D01*
X0662836Y0020055D01*
X0662675Y0020051D01*
X0662515Y0020051D01*
X0662354Y0020055D01*
X0662193Y0020063D01*
X0662033Y0020075D01*
X0661873Y0020091D01*
X0661713Y0020111D01*
X0661554Y0020135D01*
X0661396Y0020163D01*
X0661238Y0020194D01*
X0661082Y0020230D01*
X0660926Y0020269D01*
X0660771Y0020312D01*
X0660617Y0020359D01*
X0660464Y0020410D01*
X0660313Y0020465D01*
X0660163Y0020523D01*
X0660015Y0020585D01*
X0659868Y0020651D01*
X0659723Y0020720D01*
X0659580Y0020793D01*
X0659438Y0020869D01*
X0659299Y0020949D01*
X0659161Y0021032D01*
X0659026Y0021119D01*
X0658892Y0021209D01*
X0658761Y0021302D01*
X0658633Y0021398D01*
X0658507Y0021498D01*
X0658383Y0021601D01*
X0658262Y0021706D01*
X0658143Y0021815D01*
X0658027Y0021926D01*
X0657914Y0022041D01*
X0657804Y0022158D01*
X0657697Y0022278D01*
X0657593Y0022400D01*
X0657492Y0022525D01*
X0657394Y0022653D01*
X0657299Y0022783D01*
X0657207Y0022915D01*
X0657119Y0023049D01*
X0657034Y0023186D01*
X0656952Y0023324D01*
X0656874Y0023465D01*
X0656800Y0023607D01*
X0656729Y0023751D01*
X0656661Y0023897D01*
X0656598Y0024045D01*
X0656537Y0024194D01*
X0656481Y0024345D01*
X0656428Y0024497D01*
X0656379Y0024650D01*
X0656334Y0024804D01*
X0656293Y0024959D01*
X0656255Y0025116D01*
X0656222Y0025273D01*
X0656192Y0025431D01*
X0656166Y0025590D01*
X0656145Y0025749D01*
X0656127Y0025909D01*
X0656113Y0026069D01*
X0656103Y0026230D01*
X0656097Y0026390D01*
X0656095Y0026551D01*
X0656095Y0341551D02*
X0656097Y0341712D01*
X0656103Y0341872D01*
X0656113Y0342033D01*
X0656127Y0342193D01*
X0656145Y0342353D01*
X0656166Y0342512D01*
X0656192Y0342671D01*
X0656222Y0342829D01*
X0656255Y0342986D01*
X0656293Y0343143D01*
X0656334Y0343298D01*
X0656379Y0343452D01*
X0656428Y0343605D01*
X0656481Y0343757D01*
X0656537Y0343908D01*
X0656598Y0344057D01*
X0656661Y0344205D01*
X0656729Y0344351D01*
X0656800Y0344495D01*
X0656874Y0344637D01*
X0656952Y0344778D01*
X0657034Y0344916D01*
X0657119Y0345053D01*
X0657207Y0345187D01*
X0657299Y0345319D01*
X0657394Y0345449D01*
X0657492Y0345577D01*
X0657593Y0345702D01*
X0657697Y0345824D01*
X0657804Y0345944D01*
X0657914Y0346061D01*
X0658027Y0346176D01*
X0658143Y0346287D01*
X0658262Y0346396D01*
X0658383Y0346501D01*
X0658507Y0346604D01*
X0658633Y0346704D01*
X0658761Y0346800D01*
X0658892Y0346893D01*
X0659026Y0346983D01*
X0659161Y0347070D01*
X0659299Y0347153D01*
X0659438Y0347233D01*
X0659580Y0347309D01*
X0659723Y0347382D01*
X0659868Y0347451D01*
X0660015Y0347517D01*
X0660163Y0347579D01*
X0660313Y0347637D01*
X0660464Y0347692D01*
X0660617Y0347743D01*
X0660771Y0347790D01*
X0660926Y0347833D01*
X0661082Y0347872D01*
X0661238Y0347908D01*
X0661396Y0347939D01*
X0661554Y0347967D01*
X0661713Y0347991D01*
X0661873Y0348011D01*
X0662033Y0348027D01*
X0662193Y0348039D01*
X0662354Y0348047D01*
X0662515Y0348051D01*
X0662675Y0348051D01*
X0662836Y0348047D01*
X0662997Y0348039D01*
X0663157Y0348027D01*
X0663317Y0348011D01*
X0663477Y0347991D01*
X0663636Y0347967D01*
X0663794Y0347939D01*
X0663952Y0347908D01*
X0664108Y0347872D01*
X0664264Y0347833D01*
X0664419Y0347790D01*
X0664573Y0347743D01*
X0664726Y0347692D01*
X0664877Y0347637D01*
X0665027Y0347579D01*
X0665175Y0347517D01*
X0665322Y0347451D01*
X0665467Y0347382D01*
X0665610Y0347309D01*
X0665752Y0347233D01*
X0665891Y0347153D01*
X0666029Y0347070D01*
X0666164Y0346983D01*
X0666298Y0346893D01*
X0666429Y0346800D01*
X0666557Y0346704D01*
X0666683Y0346604D01*
X0666807Y0346501D01*
X0666928Y0346396D01*
X0667047Y0346287D01*
X0667163Y0346176D01*
X0667276Y0346061D01*
X0667386Y0345944D01*
X0667493Y0345824D01*
X0667597Y0345702D01*
X0667698Y0345577D01*
X0667796Y0345449D01*
X0667891Y0345319D01*
X0667983Y0345187D01*
X0668071Y0345053D01*
X0668156Y0344916D01*
X0668238Y0344778D01*
X0668316Y0344637D01*
X0668390Y0344495D01*
X0668461Y0344351D01*
X0668529Y0344205D01*
X0668592Y0344057D01*
X0668653Y0343908D01*
X0668709Y0343757D01*
X0668762Y0343605D01*
X0668811Y0343452D01*
X0668856Y0343298D01*
X0668897Y0343143D01*
X0668935Y0342986D01*
X0668968Y0342829D01*
X0668998Y0342671D01*
X0669024Y0342512D01*
X0669045Y0342353D01*
X0669063Y0342193D01*
X0669077Y0342033D01*
X0669087Y0341872D01*
X0669093Y0341712D01*
X0669095Y0341551D01*
X0669093Y0341390D01*
X0669087Y0341230D01*
X0669077Y0341069D01*
X0669063Y0340909D01*
X0669045Y0340749D01*
X0669024Y0340590D01*
X0668998Y0340431D01*
X0668968Y0340273D01*
X0668935Y0340116D01*
X0668897Y0339959D01*
X0668856Y0339804D01*
X0668811Y0339650D01*
X0668762Y0339497D01*
X0668709Y0339345D01*
X0668653Y0339194D01*
X0668592Y0339045D01*
X0668529Y0338897D01*
X0668461Y0338751D01*
X0668390Y0338607D01*
X0668316Y0338465D01*
X0668238Y0338324D01*
X0668156Y0338186D01*
X0668071Y0338049D01*
X0667983Y0337915D01*
X0667891Y0337783D01*
X0667796Y0337653D01*
X0667698Y0337525D01*
X0667597Y0337400D01*
X0667493Y0337278D01*
X0667386Y0337158D01*
X0667276Y0337041D01*
X0667163Y0336926D01*
X0667047Y0336815D01*
X0666928Y0336706D01*
X0666807Y0336601D01*
X0666683Y0336498D01*
X0666557Y0336398D01*
X0666429Y0336302D01*
X0666298Y0336209D01*
X0666164Y0336119D01*
X0666029Y0336032D01*
X0665891Y0335949D01*
X0665752Y0335869D01*
X0665610Y0335793D01*
X0665467Y0335720D01*
X0665322Y0335651D01*
X0665175Y0335585D01*
X0665027Y0335523D01*
X0664877Y0335465D01*
X0664726Y0335410D01*
X0664573Y0335359D01*
X0664419Y0335312D01*
X0664264Y0335269D01*
X0664108Y0335230D01*
X0663952Y0335194D01*
X0663794Y0335163D01*
X0663636Y0335135D01*
X0663477Y0335111D01*
X0663317Y0335091D01*
X0663157Y0335075D01*
X0662997Y0335063D01*
X0662836Y0335055D01*
X0662675Y0335051D01*
X0662515Y0335051D01*
X0662354Y0335055D01*
X0662193Y0335063D01*
X0662033Y0335075D01*
X0661873Y0335091D01*
X0661713Y0335111D01*
X0661554Y0335135D01*
X0661396Y0335163D01*
X0661238Y0335194D01*
X0661082Y0335230D01*
X0660926Y0335269D01*
X0660771Y0335312D01*
X0660617Y0335359D01*
X0660464Y0335410D01*
X0660313Y0335465D01*
X0660163Y0335523D01*
X0660015Y0335585D01*
X0659868Y0335651D01*
X0659723Y0335720D01*
X0659580Y0335793D01*
X0659438Y0335869D01*
X0659299Y0335949D01*
X0659161Y0336032D01*
X0659026Y0336119D01*
X0658892Y0336209D01*
X0658761Y0336302D01*
X0658633Y0336398D01*
X0658507Y0336498D01*
X0658383Y0336601D01*
X0658262Y0336706D01*
X0658143Y0336815D01*
X0658027Y0336926D01*
X0657914Y0337041D01*
X0657804Y0337158D01*
X0657697Y0337278D01*
X0657593Y0337400D01*
X0657492Y0337525D01*
X0657394Y0337653D01*
X0657299Y0337783D01*
X0657207Y0337915D01*
X0657119Y0338049D01*
X0657034Y0338186D01*
X0656952Y0338324D01*
X0656874Y0338465D01*
X0656800Y0338607D01*
X0656729Y0338751D01*
X0656661Y0338897D01*
X0656598Y0339045D01*
X0656537Y0339194D01*
X0656481Y0339345D01*
X0656428Y0339497D01*
X0656379Y0339650D01*
X0656334Y0339804D01*
X0656293Y0339959D01*
X0656255Y0340116D01*
X0656222Y0340273D01*
X0656192Y0340431D01*
X0656166Y0340590D01*
X0656145Y0340749D01*
X0656127Y0340909D01*
X0656113Y0341069D01*
X0656103Y0341230D01*
X0656097Y0341390D01*
X0656095Y0341551D01*
D26*
X0662595Y0341551D03*
X0662595Y0026551D03*
X0362595Y0026551D03*
X0062595Y0026551D03*
X0062595Y0341551D03*
M02*
